<mxfile host="65bd71144e">
    <diagram id="HsdODpi_m86_y1eoxJPe" name="POC">
        <mxGraphModel dx="2091" dy="641" grid="0" gridSize="10" guides="1" tooltips="1" connect="1" arrows="1" fold="1" page="1" pageScale="1" pageWidth="1100" pageHeight="850" math="0" shadow="0">
            <root>
                <mxCell id="0"/>
                <mxCell id="1" parent="0"/>
                <mxCell id="3" style="edgeStyle=none;html=1;" edge="1" parent="1" source="WsJvqdU1jmoy5d_7Tvaz-1" target="2">
                    <mxGeometry relative="1" as="geometry"/>
                </mxCell>
                <mxCell id="OiTcC4U-dzjRlNurKq5e-4" value="" style="edgeStyle=none;html=1;" edge="1" parent="1" source="WsJvqdU1jmoy5d_7Tvaz-1" target="2">
                    <mxGeometry relative="1" as="geometry"/>
                </mxCell>
                <mxCell id="WsJvqdU1jmoy5d_7Tvaz-1" value="Convert to Articles" style="rounded=1;whiteSpace=wrap;html=1;absoluteArcSize=1;arcSize=14;strokeWidth=2;" parent="1" vertex="1">
                    <mxGeometry x="664" y="287" width="100" height="100" as="geometry"/>
                </mxCell>
                <mxCell id="WsJvqdU1jmoy5d_7Tvaz-4" style="edgeStyle=none;html=1;" parent="1" source="WsJvqdU1jmoy5d_7Tvaz-2" target="WsJvqdU1jmoy5d_7Tvaz-1" edge="1">
                    <mxGeometry relative="1" as="geometry"/>
                </mxCell>
                <mxCell id="WsJvqdU1jmoy5d_7Tvaz-2" value="DOAJ API" style="ellipse;shape=cloud;whiteSpace=wrap;html=1;" parent="1" vertex="1">
                    <mxGeometry x="473" y="210.5" width="120" height="80" as="geometry"/>
                </mxCell>
                <mxCell id="WsJvqdU1jmoy5d_7Tvaz-5" style="edgeStyle=none;html=1;" parent="1" source="WsJvqdU1jmoy5d_7Tvaz-3" target="WsJvqdU1jmoy5d_7Tvaz-1" edge="1">
                    <mxGeometry relative="1" as="geometry"/>
                </mxCell>
                <mxCell id="WsJvqdU1jmoy5d_7Tvaz-3" value="Semantic Scholar &lt;br&gt;API" style="ellipse;shape=cloud;whiteSpace=wrap;html=1;" parent="1" vertex="1">
                    <mxGeometry x="473" y="383.5" width="120" height="80" as="geometry"/>
                </mxCell>
                <mxCell id="WsJvqdU1jmoy5d_7Tvaz-8" style="edgeStyle=none;html=1;" parent="1" source="WsJvqdU1jmoy5d_7Tvaz-6" target="WsJvqdU1jmoy5d_7Tvaz-2" edge="1">
                    <mxGeometry relative="1" as="geometry"/>
                </mxCell>
                <mxCell id="WsJvqdU1jmoy5d_7Tvaz-6" value="Convert to Elastic query" style="rounded=1;whiteSpace=wrap;html=1;absoluteArcSize=1;arcSize=14;strokeWidth=2;" parent="1" vertex="1">
                    <mxGeometry x="326" y="200.5" width="100" height="100" as="geometry"/>
                </mxCell>
                <mxCell id="WsJvqdU1jmoy5d_7Tvaz-9" style="edgeStyle=none;html=1;" parent="1" source="WsJvqdU1jmoy5d_7Tvaz-7" target="WsJvqdU1jmoy5d_7Tvaz-3" edge="1">
                    <mxGeometry relative="1" as="geometry"/>
                </mxCell>
                <mxCell id="WsJvqdU1jmoy5d_7Tvaz-7" value="Convert to Semantic Scholar query" style="rounded=1;whiteSpace=wrap;html=1;absoluteArcSize=1;arcSize=14;strokeWidth=2;" parent="1" vertex="1">
                    <mxGeometry x="328" y="375" width="100" height="101" as="geometry"/>
                </mxCell>
                <mxCell id="WsJvqdU1jmoy5d_7Tvaz-11" style="edgeStyle=none;html=1;" parent="1" source="WsJvqdU1jmoy5d_7Tvaz-10" target="WsJvqdU1jmoy5d_7Tvaz-6" edge="1">
                    <mxGeometry relative="1" as="geometry"/>
                </mxCell>
                <mxCell id="WsJvqdU1jmoy5d_7Tvaz-12" style="edgeStyle=none;html=1;" parent="1" source="WsJvqdU1jmoy5d_7Tvaz-10" target="WsJvqdU1jmoy5d_7Tvaz-7" edge="1">
                    <mxGeometry relative="1" as="geometry"/>
                </mxCell>
                <mxCell id="WsJvqdU1jmoy5d_7Tvaz-10" value="Standalone Question" style="rounded=1;whiteSpace=wrap;html=1;absoluteArcSize=1;arcSize=14;strokeWidth=2;" parent="1" vertex="1">
                    <mxGeometry x="173" y="287" width="100" height="100" as="geometry"/>
                </mxCell>
                <mxCell id="WsJvqdU1jmoy5d_7Tvaz-15" style="edgeStyle=none;html=1;" parent="1" source="WsJvqdU1jmoy5d_7Tvaz-13" target="OiTcC4U-dzjRlNurKq5e-10" edge="1">
                    <mxGeometry relative="1" as="geometry"/>
                </mxCell>
                <mxCell id="WsJvqdU1jmoy5d_7Tvaz-13" value="Fix ori lang grammar" style="rounded=1;whiteSpace=wrap;html=1;absoluteArcSize=1;arcSize=14;strokeWidth=2;" parent="1" vertex="1">
                    <mxGeometry x="-179" y="287" width="100" height="100" as="geometry"/>
                </mxCell>
                <mxCell id="WsJvqdU1jmoy5d_7Tvaz-16" style="edgeStyle=none;html=1;" parent="1" source="WsJvqdU1jmoy5d_7Tvaz-14" target="WsJvqdU1jmoy5d_7Tvaz-13" edge="1">
                    <mxGeometry relative="1" as="geometry"/>
                </mxCell>
                <mxCell id="WsJvqdU1jmoy5d_7Tvaz-14" value="Fix ori lang spelling" style="rounded=1;whiteSpace=wrap;html=1;absoluteArcSize=1;arcSize=14;strokeWidth=2;" parent="1" vertex="1">
                    <mxGeometry x="-338" y="287" width="100" height="100" as="geometry"/>
                </mxCell>
                <mxCell id="WsJvqdU1jmoy5d_7Tvaz-20" style="edgeStyle=none;html=1;" parent="1" source="WsJvqdU1jmoy5d_7Tvaz-19" target="WsJvqdU1jmoy5d_7Tvaz-14" edge="1">
                    <mxGeometry relative="1" as="geometry"/>
                </mxCell>
                <mxCell id="WsJvqdU1jmoy5d_7Tvaz-19" value="User Query" style="strokeWidth=2;html=1;shape=mxgraph.flowchart.start_2;whiteSpace=wrap;" parent="1" vertex="1">
                    <mxGeometry x="-492" y="287" width="100" height="100" as="geometry"/>
                </mxCell>
                <mxCell id="2" value="Send Articles" style="strokeWidth=2;html=1;shape=mxgraph.flowchart.start_2;whiteSpace=wrap;" vertex="1" parent="1">
                    <mxGeometry x="865" y="287" width="100" height="100" as="geometry"/>
                </mxCell>
                <mxCell id="OiTcC4U-dzjRlNurKq5e-9" value="Reason to convert to Eng. bcs we use international OA papers" style="strokeWidth=1;shadow=0;dashed=0;align=center;html=1;shape=mxgraph.mockup.text.stickyNote2;fontColor=#666666;mainText=;fontSize=17;whiteSpace=wrap;fillColor=#ffffcc;strokeColor=#F62E00;" vertex="1" parent="1">
                    <mxGeometry x="468" y="488" width="200" height="200" as="geometry"/>
                </mxCell>
                <mxCell id="OiTcC4U-dzjRlNurKq5e-11" style="edgeStyle=none;html=1;" edge="1" parent="1" source="OiTcC4U-dzjRlNurKq5e-10" target="WsJvqdU1jmoy5d_7Tvaz-10">
                    <mxGeometry relative="1" as="geometry"/>
                </mxCell>
                <mxCell id="OiTcC4U-dzjRlNurKq5e-10" value="Translate to Eng" style="rounded=1;whiteSpace=wrap;html=1;absoluteArcSize=1;arcSize=14;strokeWidth=2;" vertex="1" parent="1">
                    <mxGeometry y="287" width="100" height="100" as="geometry"/>
                </mxCell>
            </root>
        </mxGraphModel>
    </diagram>
</mxfile>